<svg xmlns="http://www.w3.org/2000/svg" xmlns:xlink="http://www.w3.org/1999/xlink" version="1.1" x="0px" y="0px" viewBox="0 0 100 100" enable-background="new 0 0 100 100">
  <g>
    <path d="M94,16.7509c-0.0002-0.1399-0.0173-0.2768-0.0419-0.4119c-0.0061-0.0342-0.0124-0.0679-0.02-0.1016   c-0.0294-0.1285-0.0665-0.2545-0.1166-0.3753c-0.0085-0.0206-0.0197-0.0394-0.0288-0.0596   c-0.0467-0.1041-0.1014-0.2038-0.1627-0.2999c-0.0181-0.0282-0.0354-0.0565-0.0547-0.0839   c-0.0745-0.1063-0.1561-0.2074-0.2479-0.3004c-0.0148-0.015-0.0313-0.0278-0.0465-0.0424c-0.0814-0.0782-0.1692-0.15-0.2623-0.2164   c-0.028-0.02-0.0555-0.0401-0.0844-0.0589c-0.0195-0.0127-0.0369-0.0277-0.0569-0.0399L76.8992,5.068   c-0.7451-0.4523-1.6806-0.4509-2.4248,0.0041l-24.227,14.7982L26.0204,5.0721c-0.7437-0.455-1.6801-0.4563-2.4248-0.0041   L7.6175,14.7607c-0.02,0.0121-0.0375,0.0272-0.0569,0.0399c-0.0289,0.0188-0.0564,0.0389-0.0844,0.0589   c-0.0931,0.0664-0.1809,0.1382-0.2623,0.2164c-0.0151,0.0146-0.0317,0.0274-0.0465,0.0424   c-0.0918,0.0931-0.1734,0.1941-0.2479,0.3004c-0.0192,0.0274-0.0365,0.0556-0.0547,0.0839   c-0.0613,0.0961-0.116,0.1958-0.1627,0.2999c-0.0091,0.0203-0.0203,0.0391-0.0288,0.0596   c-0.0501,0.1208-0.0872,0.2468-0.1166,0.3753c-0.0076,0.0337-0.0139,0.0674-0.02,0.1016c-0.0246,0.135-0.0417,0.272-0.0419,0.4119   c0,0.0007,0.0001,0.0015,0.0001,0.0022c0,0.0005-0.0001,0.0009-0.0001,0.0014v13.1449c0,0.8125,0.4231,1.5662,1.1163,1.9898   l2.2503,1.3745v11.2297c0,0.0145,0.004,0.028,0.0043,0.0425l-2.2546,1.3771c-0.0181,0.011-0.0338,0.0248-0.0515,0.0362   c-0.0294,0.019-0.0568,0.0396-0.0852,0.0599c-0.0915,0.0652-0.1776,0.1359-0.2577,0.2125c-0.0167,0.0161-0.035,0.0304-0.0512,0.047   c-0.0917,0.0932-0.1736,0.1941-0.2479,0.3005c-0.0187,0.0265-0.0351,0.054-0.0526,0.0813c-0.061,0.0957-0.1155,0.195-0.162,0.2985   c-0.0097,0.0215-0.0213,0.0415-0.0304,0.0634c-0.0501,0.1211-0.0874,0.2472-0.1167,0.376   c-0.0074,0.0329-0.0133,0.0659-0.0192,0.0993c-0.0244,0.134-0.0409,0.2701-0.0412,0.409c0,0.0021-0.0007,0.004-0.0007,0.0061   v13.1448c0,0.8152,0.4254,1.5708,1.1222,1.9939l2.2444,1.3615v15.8937c0,1.288,1.0439,2.3318,2.3318,2.3318   s2.3318-1.0439,2.3318-2.3318V67.2321l2.8184,1.7096c-0.0459,0.1825-0.0775,0.3704-0.0775,0.5672v22.6804   c0,1.288,1.0439,2.3318,2.3318,2.3318c1.288,0,2.3318-1.0439,2.3318-2.3318V71.7237l1.666,1.0106   c0.0947,0.0575,0.1928,0.1072,0.2928,0.15c0.0156,0.0067,0.0323,0.0106,0.048,0.0169c0.1122,0.045,0.2267,0.0796,0.3431,0.1064   c0.0369,0.0085,0.0737,0.0161,0.1111,0.0228c0.1371,0.0247,0.2752,0.0417,0.4141,0.0417c0.1388,0,0.2769-0.017,0.414-0.0417   c0.038-0.0069,0.0754-0.0146,0.1128-0.0233c0.1131-0.0262,0.2244-0.0601,0.3334-0.1035c0.0192-0.0077,0.0396-0.0126,0.0586-0.0208   c0.1014-0.0436,0.2007-0.0941,0.2967-0.1528l24.2268-14.7983l24.2272,14.7983c0.0959,0.0587,0.1953,0.1092,0.2967,0.1528   c0.0191,0.0082,0.0395,0.0132,0.0588,0.0208c0.1091,0.0433,0.2202,0.0772,0.3332,0.1034c0.0376,0.0087,0.0749,0.0164,0.1131,0.0233   c0.1371,0.0247,0.2751,0.0417,0.4139,0.0417c0.1389,0,0.2771-0.017,0.4143-0.0418c0.0373-0.0067,0.0739-0.0142,0.1107-0.0227   c0.1169-0.027,0.2323-0.0617,0.3449-0.107c0.0151-0.0061,0.0312-0.0098,0.0461-0.0162c0.1003-0.0429,0.1983-0.0926,0.2932-0.1502   l1.2515-0.7592v20.2142c0,1.288,1.0439,2.3318,2.3318,2.3318c1.288,0,2.3318-1.0439,2.3318-2.3318V69.5089   c0-0.1171-0.0178-0.2295-0.0345-0.342l2.7749-1.6833v12.8132c0,1.288,1.0439,2.3318,2.3318,2.3318s2.3318-1.0439,2.3318-2.3318   V64.6545l2.6588-1.6129C93.5746,62.6185,94,61.863,94,61.0477V47.9029c0-0.0021-0.0007-0.004-0.0007-0.0061   c-0.0003-0.139-0.0168-0.275-0.0412-0.4092c-0.0059-0.0333-0.0118-0.0663-0.0192-0.0991   c-0.0293-0.1289-0.0667-0.2551-0.1168-0.3763c-0.009-0.0217-0.0205-0.0416-0.0302-0.0629   c-0.0466-0.1037-0.1011-0.2032-0.1622-0.299c-0.0174-0.0272-0.0338-0.0546-0.0524-0.081c-0.0743-0.1064-0.1563-0.2075-0.248-0.3006   c-0.0163-0.0165-0.0344-0.0308-0.0511-0.0469c-0.0802-0.0767-0.1663-0.1474-0.2578-0.2127   c-0.0284-0.0202-0.0559-0.0408-0.0852-0.0598c-0.0176-0.0115-0.0334-0.0252-0.0515-0.0362l-2.6652-1.628V33.5172l2.6652-1.628   C93.5769,31.4657,94,30.7119,94,29.8994V16.7546c0-0.0005-0.0001-0.0009-0.0001-0.0014C93.9999,16.7524,94,16.7517,94,16.7509z    M89.3363,28.5914L76.931,36.1689l-6.2871-3.8402l18.6924-11.4175V28.5914z M89.3363,59.7347l-11.3144,6.8637v-7.69l11.3144-6.8636   V59.7347z M11.1586,59.7347v-7.6899l11.3144,6.8636v7.69L11.1586,59.7347z M11.1586,28.5914v-7.6802L29.851,32.3287l-6.2871,3.8402   L11.1586,28.5914z M50.2474,25.335 M52.3721,46.0849l20.9861,12.8186v7.6802L52.3721,53.7652V46.0849z M87.1835,47.896   l-11.4893,6.9696L54.7208,42.0548l11.4498-6.9937L87.1835,47.896z M24.8008,54.8656L13.3114,47.896L75.6941,9.7918l11.4893,6.9696   L24.8008,54.8656z M24.8008,9.7918l20.9734,12.8108l-11.4498,6.9937l-21.0129-12.835L24.8008,9.7918z M14.5252,36.1124   l4.5655,2.7888l-4.5655,2.7887V36.1124z M27.1367,66.5836v-7.6802L47.7084,46.338v7.68L27.1367,66.5836z M85.5548,41.4365   l-4.1506-2.5353l4.1506-2.5353V41.4365z"/>
    <path d="M53.1153,29.5897c0-0.0005-0.0005-0.0005-0.0005-0.0009c-1.4424-1.0452-3.7387-1.1787-5.4584-0.3206   c-1.2406,0.6189-2.0094,1.6655-2.1091,2.872c-0.0938,1.1386,0.4226,2.2057,1.4178,2.9276c0.8066,0.5848,1.881,0.8849,2.9726,0.8849   c0.859,0,1.7284-0.1858,2.4867-0.5638c1.2402-0.6194,2.0089-1.6664,2.1082-2.8724C54.6265,31.3778,54.11,30.3111,53.1153,29.5897z"/>
  </g>
</svg>
